# xmcd CD database file
#
# Track frame offsets:
#	150
#	19232
#	34923
#	52260
#	69235
#	89331
#	110283
#	129728
#	144828
#	163225
#	180260
#	195205
#
# Disc length: 2818 seconds
#
# Revision: 0
# Processed by: cddbd v1.5.2PL0 Copyright (c) Steve Scherf et al.
# Submitted via: CDex 1.51
#
DISCID=9d0b000c
DTITLE=Steve Vaus - We Must Take America Back
DYEAR=2009
DGENRE=Country
TTITLE0=We Must Take America Back
TTITLE1=Tea Party
TTITLE2=Renegades
TTITLE3=Johnny Comes Marching Home
TTITLE4=I Still Believe
TTITLE5=American Medley
TTITLE6=Forever Heroes
TTITLE7=I Am America
TTITLE8=Sacred Ground
TTITLE9=Talk Radio
TTITLE10=Star Spangled Banner
TTITLE11=There's An Eagle
EXTD=YEAR: 2009
EXTT0=
EXTT1=
EXTT2=
EXTT3=
EXTT4=
EXTT5=
EXTT6=
EXTT7=
EXTT8=
EXTT9=
EXTT10=
EXTT11=
PLAYORDER=
